<?xml version="1.0" standalone="no"?>
<!DOCTYPE svg PUBLIC "-//W3C//DTD SVG 20010904//EN"
 "http://www.w3.org/TR/2001/REC-SVG-20010904/DTD/svg10.dtd">
<svg version="1.0" xmlns="http://www.w3.org/2000/svg"
 width="840.000000pt" height="859.000000pt" viewBox="0 0 840.000000 859.000000"
 preserveAspectRatio="xMidYMid meet">

<g transform="translate(0.000000,859.000000) scale(0.100000,-0.100000)"
fill="#000000" stroke="none">
<path d="M3777 8549 c-68 -40 -71 -197 -11 -669 47 -369 79 -521 114 -540 33
-18 67 -11 89 16 28 36 28 125 -4 474 -56 612 -63 663 -105 708 -22 23 -54 28
-83 11z"/>
<path d="M6144 8201 c-52 -24 -98 -91 -208 -310 -96 -190 -241 -510 -280 -619
-46 -128 -29 -181 54 -173 43 5 97 96 312 526 185 371 220 449 225 495 8 86
-29 114 -103 81z"/>
<path d="M1740 7820 c-30 -30 -27 -102 9 -167 90 -163 541 -736 637 -809 41
-32 80 -29 107 8 40 53 19 86 -372 613 -199 268 -256 336 -303 361 -37 19 -54
18 -78 -6z"/>
<path d="M4160 6760 c-127 -11 -265 -35 -375 -65 -459 -124 -731 -278 -1020
-576 -216 -222 -358 -454 -416 -674 -52 -196 -76 -450 -59 -618 44 -444 266
-845 814 -1471 76 -87 163 -192 192 -233 155 -215 220 -473 183 -718 -31 -204
-4 -293 131 -425 223 -219 546 -329 881 -299 152 13 275 45 425 110 294 128
468 266 562 446 65 125 59 172 -41 305 -64 84 -75 110 -88 193 -15 102 21 357
72 510 44 131 141 324 269 535 305 500 362 622 425 912 95 443 10 891 -242
1273 -154 232 -392 440 -674 589 -182 96 -390 163 -604 195 -103 15 -327 21
-435 11z m340 -280 c181 -19 267 -39 412 -96 263 -102 422 -201 596 -369 140
-135 218 -237 282 -369 116 -239 149 -556 90 -861 -51 -259 -182 -566 -360
-840 -186 -287 -300 -554 -361 -851 -15 -71 -22 -155 -26 -295 -5 -195 -5
-197 20 -252 19 -41 39 -65 76 -92 27 -20 53 -45 56 -55 9 -28 -27 -102 -74
-153 -115 -124 -335 -234 -571 -284 -127 -27 -403 -24 -526 4 -127 30 -243 78
-332 137 -128 86 -140 118 -115 306 20 160 13 344 -17 449 -53 186 -146 336
-369 590 -141 162 -327 386 -374 449 -26 35 -78 121 -116 190 -242 439 -311
771 -236 1127 62 297 161 468 425 739 140 144 239 222 366 292 182 99 480 205
629 223 50 6 101 13 115 15 55 8 321 5 410 -4z"/>
<path d="M4525 6121 c-3 -6 23 -24 57 -42 281 -140 494 -383 572 -653 41 -140
58 -283 46 -379 -29 -235 -94 -365 -395 -797 -160 -229 -200 -327 -212 -505
-9 -141 28 -247 117 -336 56 -55 82 -61 107 -22 15 23 17 48 15 178 -2 143 -1
156 24 226 44 123 88 200 259 455 217 321 264 417 300 607 19 102 19 283 0
386 -19 99 -74 261 -120 350 -123 243 -362 453 -586 515 -74 20 -176 29 -184
17z"/>
<path d="M4700 5549 c-47 -8 -63 -17 -110 -64 -31 -30 -62 -55 -70 -55 -8 1
-40 9 -70 20 -114 40 -251 16 -321 -56 -53 -56 -60 -57 -126 -26 -48 22 -72
27 -138 27 -72 0 -86 -3 -143 -34 -117 -63 -201 -186 -210 -303 -8 -110 13
-207 80 -368 221 -534 367 -1061 423 -1535 9 -71 20 -271 25 -444 8 -267 12
-319 27 -350 20 -41 54 -52 83 -26 62 56 99 499 70 820 -37 405 -201 1022
-381 1438 -89 206 -120 304 -121 388 -1 91 15 131 69 179 78 68 128 53 203
-60 44 -66 72 -90 105 -90 41 0 54 11 107 95 69 107 103 132 154 110 21 -8 40
-31 62 -73 43 -80 56 -92 102 -92 41 0 94 35 104 68 3 9 12 44 22 76 12 44 29
73 62 108 51 55 71 68 121 79 44 10 75 -3 97 -40 21 -36 39 -39 54 -12 30 57
-19 174 -85 205 -45 22 -123 28 -195 15z"/>
<path d="M7454 6732 c-188 -76 -782 -421 -876 -510 -34 -31 -38 -80 -8 -107
29 -26 92 -15 191 33 135 66 760 405 810 439 156 107 66 218 -117 145z"/>
<path d="M662 6154 c-36 -25 -24 -92 25 -136 85 -77 869 -374 1019 -386 l64
-5 14 34 c23 55 -2 90 -97 137 -73 36 -761 314 -861 348 -81 28 -132 30 -164
8z"/>
<path d="M6620 4822 c-46 -5 -70 -28 -70 -67 0 -57 44 -79 226 -114 215 -41
837 -141 875 -141 128 0 159 95 52 157 -70 41 -302 86 -675 132 -249 31 -347
38 -408 33z"/>
<path d="M1595 4474 c-282 -60 -777 -167 -810 -176 -71 -18 -125 -49 -141 -81
-15 -28 -15 -32 4 -56 26 -36 59 -51 113 -51 151 0 903 181 1041 251 48 24 59
60 31 97 -18 25 -26 27 -94 29 -41 1 -105 -5 -144 -13z"/>
<path d="M6049 3857 c-70 -59 -181 -185 -243 -275 -99 -144 -158 -323 -160
-483 -1 -109 13 -149 50 -149 29 0 43 26 85 156 40 127 125 305 222 466 145
241 180 329 131 336 -14 2 -43 -15 -85 -51z"/>
<path d="M2847 3253 c-15 -14 -4 -35 61 -115 68 -83 180 -275 220 -378 27 -68
41 -133 42 -183 0 -79 46 -134 78 -94 14 18 32 110 32 169 0 199 -174 509
-332 589 -37 19 -88 25 -101 12z"/>
<path d="M5295 1738 c-114 -67 -302 -154 -416 -192 -257 -85 -442 -99 -702
-52 -164 30 -190 39 -357 120 -129 64 -163 68 -168 22 -6 -47 27 -114 82 -170
40 -40 81 -67 186 -118 218 -107 319 -132 525 -132 301 0 622 92 863 248 143
91 210 174 198 244 -8 54 -31 72 -90 72 -42 0 -64 -8 -121 -42z"/>
<path d="M5365 1327 c-16 -7 -61 -31 -100 -53 -154 -91 -298 -149 -494 -201
-130 -34 -144 -36 -306 -37 -238 -1 -404 36 -611 134 -125 60 -160 45 -112
-50 50 -97 241 -220 428 -273 223 -65 437 -62 715 9 365 93 605 254 605 405 0
71 -48 96 -125 66z"/>
<path d="M5163 796 c-170 -82 -322 -119 -546 -135 -224 -16 -495 12 -591 61
-84 43 -110 -16 -70 -159 20 -69 102 -183 167 -232 54 -42 131 -80 158 -81 18
0 53 -37 94 -98 76 -115 282 -153 431 -81 56 27 111 90 152 172 27 56 40 70
90 101 75 46 147 122 178 190 40 88 65 235 48 280 -9 24 -32 20 -111 -18z"/>
</g>
</svg>
