<?xml version="1.0" standalone="no"?>
<!DOCTYPE svg PUBLIC "-//W3C//DTD SVG 20010904//EN"
 "http://www.w3.org/TR/2001/REC-SVG-20010904/DTD/svg10.dtd">
<svg version="1.0" xmlns="http://www.w3.org/2000/svg"
 width="840.000000pt" height="859.000000pt" viewBox="0 0 840.000000 859.000000"
 preserveAspectRatio="xMidYMid meet">

<g transform="translate(0.000000,859.000000) scale(0.100000,-0.100000)"
fill="#000000" stroke="none">
<path d="M4160 7409 c-69 -11 -182 -66 -238 -116 -34 -31 -153 -234 -633
-1078 -325 -572 -657 -1157 -739 -1300 -217 -381 -463 -814 -960 -1690 -243
-429 -450 -787 -460 -796 -22 -19 -262 -478 -285 -544 -22 -66 -30 -195 -16
-270 37 -195 190 -345 389 -381 64 -11 569 -13 2977 -14 1911 0 2922 4 2965
10 133 21 277 119 344 233 95 162 98 369 8 547 -21 41 -192 350 -379 685 -338
606 -783 1402 -873 1565 -26 47 -157 281 -290 520 -134 239 -340 611 -460 825
-625 1122 -856 1536 -892 1598 -62 106 -182 185 -318 206 -36 6 -69 10 -75 10
-5 -1 -35 -5 -65 -10z m134 -334 c28 -14 88 -116 493 -843 615 -1103 807
-1448 1666 -2987 402 -720 746 -1339 764 -1374 62 -120 37 -250 -57 -298 l-44
-23 -2921 0 c-2858 0 -2921 1 -2962 20 -59 26 -83 69 -83 145 0 42 7 75 24
110 12 28 583 1036 1268 2240 685 1205 1343 2363 1463 2575 120 212 227 396
239 409 38 43 94 52 150 26z"/>
<path d="M4148 5655 c-134 -33 -271 -117 -327 -201 -39 -59 -39 -69 -6 -456
14 -161 49 -579 79 -928 60 -720 57 -700 150 -788 65 -62 129 -87 221 -87 92
0 156 25 221 87 98 92 88 25 167 1120 61 837 69 973 58 1009 -19 61 -108 147
-201 192 -134 66 -241 81 -362 52z"/>
<path d="M4128 2941 c-212 -70 -347 -289 -310 -504 18 -101 55 -172 131 -248
143 -142 335 -176 514 -91 173 82 265 241 255 440 -4 79 -9 100 -41 164 -47
97 -118 168 -215 216 -70 34 -83 37 -176 39 -78 2 -114 -1 -158 -16z"/>
</g>
</svg>
