<?xml version="1.0" standalone="no"?>
<!DOCTYPE svg PUBLIC "-//W3C//DTD SVG 20010904//EN"
 "http://www.w3.org/TR/2001/REC-SVG-20010904/DTD/svg10.dtd">
<svg version="1.0" xmlns="http://www.w3.org/2000/svg"
 width="840.000000pt" height="955.000000pt" viewBox="0 0 840.000000 955.000000"
 preserveAspectRatio="xMidYMid meet">

<g transform="translate(0.000000,955.000000) scale(0.100000,-0.100000)"
fill="#000000" stroke="none">
<path d="M4705 9143 c-73 -7 -240 -42 -321 -68 -114 -37 -289 -124 -396 -196
-58 -39 -143 -113 -224 -194 l-132 -131 -65 32 c-89 45 -283 109 -397 130 -70
14 -143 18 -280 18 -204 -1 -302 -16 -480 -74 -603 -197 -1030 -755 -1067
-1395 l-6 -101 -96 -33 c-113 -39 -275 -122 -379 -194 -146 -100 -332 -297
-429 -452 -48 -75 -128 -250 -157 -340 -55 -168 -70 -274 -70 -480 1 -156 5
-208 22 -292 49 -226 135 -426 260 -603 84 -119 251 -286 365 -367 104 -73
270 -159 384 -199 l83 -29 0 -112 c0 -648 434 -1246 1055 -1452 183 -61 280
-75 500 -75 169 0 216 3 302 22 210 46 379 115 542 222 50 33 94 60 97 60 2 0
34 -25 71 -56 291 -247 680 -379 1063 -360 499 24 948 284 1223 706 30 47 65
106 78 133 17 34 27 46 39 42 52 -17 189 -37 286 -42 338 -18 709 94 984 297
581 432 795 1193 520 1854 -55 131 -132 263 -222 377 l-20 27 40 98 c100 246
140 510 112 744 -25 206 -72 366 -156 535 -152 307 -411 562 -720 711 -195 94
-394 142 -625 151 l-146 6 -28 76 c-241 654 -905 1068 -1610 1004z m375 -383
c248 -53 455 -165 622 -336 37 -38 88 -96 113 -129 71 -93 160 -283 194 -411
33 -127 56 -165 119 -196 43 -20 48 -21 173 -8 146 15 268 9 396 -19 580 -127
986 -682 925 -1266 -16 -154 -50 -266 -129 -424 -96 -192 -93 -221 31 -360
383 -427 409 -1051 62 -1512 -182 -241 -463 -409 -763 -454 -181 -27 -328 -16
-518 41 -116 35 -146 39 -190 24 -56 -18 -100 -63 -126 -128 -12 -31 -41 -95
-65 -142 -226 -453 -728 -714 -1224 -635 -257 41 -459 146 -663 345 -59 57
-118 110 -130 117 -32 18 -122 16 -160 -3 -18 -9 -56 -39 -85 -65 -358 -326
-906 -393 -1343 -162 -161 84 -318 223 -418 368 -72 104 -147 265 -177 382
-32 121 -43 320 -24 453 13 100 6 141 -35 196 -27 35 -72 56 -175 79 -210 48
-422 165 -574 319 -451 456 -462 1172 -25 1640 174 186 370 291 683 365 60 14
98 40 128 89 20 32 22 46 19 112 -9 136 -5 284 9 355 92 493 487 880 980 960
292 47 587 -18 850 -188 59 -39 70 -42 130 -42 84 0 115 22 196 137 194 278
476 455 811 508 74 11 311 5 383 -10z"/>
<path d="M6170 2639 c-139 -17 -260 -77 -366 -183 -125 -125 -185 -268 -185
-441 -1 -189 56 -330 186 -460 128 -129 273 -189 455 -189 175 0 322 63 450
193 128 129 185 270 184 451 -2 183 -67 334 -201 461 -139 132 -328 193 -523
168z m244 -287 c89 -42 140 -91 184 -180 34 -71 37 -82 37 -166 0 -81 -3 -98
-32 -158 -74 -158 -243 -250 -403 -220 -171 31 -288 146 -321 315 -38 187 96
388 288 437 68 17 177 5 247 -28z"/>
<path d="M6815 1327 c-190 -63 -309 -208 -330 -405 -14 -123 46 -274 146 -366
269 -249 694 -101 760 264 11 61 10 81 -4 148 -35 158 -117 264 -254 329 -72
35 -86 38 -178 40 -63 2 -115 -2 -140 -10z m231 -211 c181 -84 196 -341 25
-443 -65 -39 -124 -49 -191 -33 -113 27 -192 130 -191 248 0 71 16 115 62 167
73 82 195 108 295 61z"/>
</g>
</svg>
